<svg width="127" height="47" viewBox="0 0 127 47" fill="none" xmlns="http://www.w3.org/2000/svg">
<path d="M79.6101 2.52648C79.6101 1.75969 79.6101 1.06501 79.6101 0.328125C80.5998 0.328125 81.5162 0.328125 82.539 0.328125C82.539 1.0527 82.539 1.76849 82.539 2.43679C83.8725 2.80611 85.1485 3.01891 86.311 3.50606C91.2611 5.57603 94.3244 9.24992 95.3001 14.6051C95.4293 15.3174 95.4921 16.0472 95.5393 16.7718C95.6108 17.8446 95.1326 18.4549 94.0539 18.5235C92.928 18.5956 91.7935 18.5393 90.5786 18.5393C90.5786 17.6213 90.5786 16.6751 90.5786 15.6093C91.1564 15.6093 91.7481 15.6093 92.3171 15.6093C93.0747 11.5696 87.5974 6.11067 82.2807 5.46875C76.2256 4.73538 70.0816 9.64211 69.7237 15.5847C75.4663 15.5847 81.202 15.5847 86.9882 15.5847C86.9882 16.6012 86.9882 17.5263 86.9882 18.585C86.2603 18.585 85.5447 18.585 84.8291 18.585C79.4006 18.5797 73.9722 18.578 68.5438 18.5657C66.9903 18.5621 66.5103 18.0328 66.5941 16.4816C66.9694 9.44338 71.9562 3.86308 78.9137 2.69355C79.1091 2.65838 79.3029 2.60034 79.6101 2.52648Z" fill="#FF6161"/>
<path d="M65.2327 23.8434C65.2327 22.8779 65.2327 21.981 65.2327 21.0208C75.7998 21.0208 86.3337 21.0208 96.9409 21.0208C96.9409 21.9353 96.9409 22.8533 96.9409 23.8434C86.407 23.8434 75.8678 23.8434 65.2327 23.8434Z" fill="#FF6161"/>
<path d="M16.4868 35.7638C14.1828 38.1626 11.404 39.362 8.14694 39.362C5.81499 39.362 3.90195 38.6251 2.40957 37.1514C0.917192 35.6776 0.171875 33.7852 0.171875 31.4743C0.171875 29.174 0.711226 26.9844 1.78993 24.9074C2.86863 22.8322 4.28072 21.172 6.02445 19.9286C7.76817 18.6852 9.48223 18.0626 11.1631 18.0626C12.5717 18.0626 13.722 18.4882 14.6104 19.3412C15.5006 20.1924 15.944 21.3004 15.944 22.6616C15.944 24.4343 15.4064 25.9697 14.3329 27.2676C13.2594 28.5655 12.0027 29.2144 10.5644 29.2144C9.80688 29.2144 9.18375 29.0192 8.69851 28.627C8.21152 28.2348 7.9689 27.7319 7.9689 27.1146C7.9689 26.5852 8.17836 26.0963 8.59553 25.6461C8.90622 26.2247 9.33386 26.5131 9.87845 26.5131C10.6552 26.5131 11.3778 26.0242 12.0428 25.0446C12.7079 24.065 13.0412 22.9922 13.0412 21.828C13.0412 21.0154 12.8545 20.3683 12.4792 19.8881C12.1057 19.408 11.6065 19.1688 10.9851 19.1688C10.0809 19.1688 9.11568 19.7369 8.09108 20.873C7.06475 22.0091 6.21121 23.4688 5.52524 25.2504C4.83927 27.0337 4.49716 28.7273 4.49716 30.3329C4.49716 32.3801 5.07316 34.0596 6.22517 35.3716C7.37719 36.6835 8.84164 37.3395 10.6203 37.3395C11.7479 37.3395 12.7637 37.0757 13.6679 36.5499C14.572 36.024 15.5093 35.1992 16.4816 34.0789V35.7638H16.4868Z" fill="#F8F8F8"/>
<path d="M32.0426 35.7479C30.4874 37.2358 29.3738 38.2066 28.7035 38.6568C28.0333 39.107 27.3909 39.3321 26.7783 39.3321C25.2423 39.3321 24.5179 37.9656 24.6052 35.2344C23.6329 36.6343 22.7358 37.6684 21.9154 38.3332C21.0933 38.9997 20.2467 39.3321 19.3705 39.3321C18.5152 39.3321 17.7891 38.9276 17.1904 38.1204C16.5934 37.3131 16.2932 36.3213 16.2932 35.1465C16.2932 33.678 16.6947 32.278 17.4958 30.945C18.297 29.6136 19.3251 28.5356 20.5801 27.7125C21.8333 26.8894 22.9417 26.4779 23.9035 26.4779C25.1183 26.4779 25.9684 27.0407 26.4554 28.168L29.4349 26.5078H30.2535L28.9671 30.8113C28.3056 32.9762 27.9739 34.4588 27.9739 35.2625C27.9739 36.1049 28.2706 36.5253 28.8624 36.5253C29.2411 36.5253 29.6583 36.3213 30.1156 35.915C30.5729 35.5087 31.2135 34.8897 32.0391 34.0561V35.7479H32.0426ZM21.3708 36.5569C22.343 36.5569 23.2594 35.7215 24.1182 34.0526C24.9787 32.3836 25.4081 30.843 25.4081 29.4325C25.4081 28.8838 25.2859 28.4564 25.0433 28.1469C24.8006 27.8391 24.4742 27.6844 24.0658 27.6844C23.0936 27.6844 22.172 28.5162 21.3027 30.1817C20.4335 31.8472 19.9971 33.379 19.9971 34.7789C19.9971 35.3082 20.1263 35.7356 20.3829 36.0645C20.6447 36.3916 20.9728 36.5569 21.3708 36.5569Z" fill="#F8F8F8"/>
<path d="M42.9327 35.7479C40.4925 38.1573 38.6126 39.362 37.2913 39.362C36.6978 39.362 36.1986 39.1105 35.7902 38.6057C35.3817 38.101 35.1775 37.4767 35.1775 36.7327C35.1775 35.3522 35.9106 33.5003 37.3786 31.1806C36.6594 31.5534 35.8722 31.8119 35.0169 31.9597C34.3851 33.1345 33.3936 34.399 32.0426 35.7496H31.7075V34.4271C32.4651 33.6339 33.151 32.7827 33.7637 31.8717C32.9276 31.4989 32.5104 30.9467 32.5104 30.2115C32.5104 29.4571 32.7653 28.6516 33.2767 27.7951C33.7864 26.9386 34.4898 26.5095 35.3835 26.5095C36.141 26.5095 36.5198 26.9017 36.5198 27.6843C36.5198 28.3016 36.3016 29.1827 35.8635 30.3294C37.4763 30.1535 38.8866 28.9101 40.091 26.5975L41.4176 26.5394L40.0613 30.2995C39.4976 31.8858 39.1328 32.9656 38.9687 33.539C38.8029 34.1123 38.7208 34.6188 38.7208 35.0585C38.7208 35.47 38.8151 35.7989 39.0053 36.0433C39.1956 36.2878 39.4504 36.4109 39.7716 36.4109C40.1207 36.4109 40.4576 36.2913 40.777 36.0504C41.0982 35.8112 41.8173 35.1464 42.9344 34.0595V35.7479H42.9327Z" fill="#F8F8F8"/>
<path d="M58.5037 35.7479C57.1039 37.1479 56.0374 38.0958 55.3043 38.59C54.5694 39.0842 53.9219 39.3321 53.3581 39.3321C52.6686 39.3321 52.1205 38.9945 51.7173 38.3191C51.3141 37.6438 51.1064 36.6537 51.0977 35.3522C50.3 36.6554 49.4325 37.6438 48.4952 38.3191C47.5579 38.9945 46.7096 39.3321 45.9503 39.3321C45.1247 39.3321 44.3951 38.9382 43.7632 38.1503C43.1314 37.3624 42.8154 36.4391 42.8154 35.3821C42.8154 33.1978 43.6044 31.1736 45.184 29.3076C46.7637 27.4417 48.462 26.5096 50.2791 26.5096C50.7835 26.5096 51.1797 26.5834 51.4677 26.7294C51.754 26.8754 52.0682 27.1251 52.4086 27.4786L54.4926 18.694C56.1945 18.293 57.343 18.0925 57.9365 18.0925C58.1302 18.0925 58.228 18.1717 58.228 18.3282C58.228 18.4355 57.9853 19.4502 57.5001 21.369C55.5574 29.0474 54.5869 33.6797 54.5869 35.2643C54.5869 35.6371 54.6637 35.9344 54.8191 36.1595C54.9744 36.3846 55.1786 36.4971 55.43 36.4971C56.0514 36.4971 57.0742 35.6846 58.5003 34.0578V35.7479H58.5037ZM47.9628 36.527C48.9159 36.527 49.8043 35.7145 50.6299 34.0877C51.4555 32.4627 51.8692 30.9397 51.8692 29.5187C51.8692 28.9401 51.74 28.4811 51.4834 28.1381C51.2251 27.7952 50.8882 27.6246 50.4711 27.6246C49.5669 27.6246 48.6924 28.474 47.8476 30.1729C47.0028 31.8718 46.5787 33.4071 46.5787 34.7771C46.5787 35.3153 46.7026 35.7427 46.9505 36.0557C47.1983 36.3705 47.5352 36.527 47.9628 36.527Z" fill="#F8F8F8"/>
<path d="M74.0595 35.7479C72.5042 37.2358 71.3906 38.2066 70.7204 38.6568C70.0501 39.107 69.4078 39.3321 68.7951 39.3321C67.2591 39.3321 66.5347 37.9656 66.622 35.2344C65.6498 36.6343 64.7526 37.6684 63.9322 38.3332C63.1101 38.9997 62.2636 39.3321 61.3873 39.3321C60.532 39.3321 59.8059 38.9276 59.2072 38.1204C58.6103 37.3131 58.3101 36.3213 58.3101 35.1465C58.3101 33.678 58.7115 32.278 59.5127 30.945C60.3139 29.6136 61.3419 28.5356 62.5969 27.7125C63.8502 26.8894 64.9586 26.4779 65.9203 26.4779C67.1352 26.4779 67.9852 27.0407 68.4722 28.168L71.4517 26.5078H72.2703L70.9839 30.8113C70.3224 32.9762 69.9908 34.4588 69.9908 35.2625C69.9908 36.1049 70.2875 36.5253 70.8792 36.5253C71.258 36.5253 71.6751 36.3213 72.1325 35.915C72.5898 35.5087 73.2304 34.8897 74.056 34.0561V35.7479H74.0595ZM63.3876 36.5569C64.3599 36.5569 65.2762 35.7215 66.1368 34.0526C66.9973 32.3836 67.4267 30.843 67.4267 29.4325C67.4267 28.8838 67.3045 28.4564 67.0619 28.1469C66.8192 27.8391 66.4928 27.6844 66.0844 27.6844C65.1122 27.6844 64.1906 28.5162 63.3213 30.1817C62.4521 31.8472 62.0157 33.379 62.0157 34.7789C62.0157 35.3082 62.1449 35.7356 62.4014 36.0645C62.6615 36.3916 62.9897 36.5569 63.3876 36.5569Z" fill="#F8F8F8"/>
<path d="M81.0187 29.0368C81.7186 28.1838 82.3784 27.5542 82.9998 27.148C83.6212 26.7417 84.3107 26.5377 85.0682 26.5377C86.0491 26.5377 86.8486 26.9176 87.4647 27.6756C88.0809 28.4353 88.3898 29.4307 88.3898 30.6653C88.3898 32.8303 87.648 34.8158 86.1661 36.622C84.6842 38.4282 83.0714 39.3321 81.3329 39.3321C80.8459 39.3321 80.4619 39.2776 80.1809 39.1703C79.8981 39.063 79.5298 38.8133 79.0725 38.4211C78.3726 41.5252 77.9222 44.0137 77.718 45.8832L74.0159 46.5445C74.7053 41.9614 75.585 37.3202 76.655 32.6192C75.3721 34.3128 74.5063 35.3557 74.0595 35.7479H73.7244V34.4254C75.5711 32.4187 77.0914 29.9795 78.287 27.111L81.5825 26.5078L81.0187 29.0368ZM79.3326 36.8928C79.8388 37.7352 80.3973 38.1573 81.01 38.1573C81.9927 38.1573 82.8602 37.4064 83.6142 35.9027C84.3683 34.399 84.7453 32.934 84.7453 31.5025C84.7453 30.748 84.5917 30.1395 84.2862 29.6734C83.9808 29.2091 83.5845 28.9752 83.0993 28.9752C82.7205 28.9752 82.3226 29.1458 81.9036 29.4888C81.4865 29.8317 81.1706 30.2309 80.9559 30.6864C80.7429 31.1419 80.4985 31.9369 80.228 33.073L79.3326 36.8928Z" fill="#F8F8F8"/>
<path d="M96.6337 29.0368C97.3336 28.1838 97.9934 27.5542 98.6148 27.148C99.2362 26.7417 99.9256 26.5377 100.683 26.5377C101.664 26.5377 102.464 26.9176 103.08 27.6756C103.696 28.4353 104.005 29.4307 104.005 30.6653C104.005 32.8303 103.263 34.8158 101.781 36.622C100.299 38.4282 98.6864 39.3321 96.9479 39.3321C96.4609 39.3321 96.0769 39.2776 95.7959 39.1703C95.5131 39.063 95.1448 38.8133 94.6875 38.4211C93.9875 41.5252 93.5372 44.0137 93.333 45.8832L89.6308 46.5445C90.3203 41.9614 91.2 37.3202 92.27 32.6192C90.9871 34.3128 90.1213 35.3557 89.6745 35.7479H89.3394V34.4254C91.1861 32.4187 92.7064 29.9795 93.902 27.111L97.1975 26.5078L96.6337 29.0368ZM94.9476 36.8928C95.4537 37.7352 96.0123 38.1573 96.625 38.1573C97.6077 38.1573 98.4752 37.4064 99.2292 35.9027C99.9832 34.399 100.36 32.934 100.36 31.5025C100.36 30.748 100.207 30.1395 99.9012 29.6734C99.5957 29.2091 99.1995 28.9752 98.7143 28.9752C98.3355 28.9752 97.9376 29.1458 97.5186 29.4888C97.1015 29.8317 96.7855 30.2309 96.5708 30.6864C96.3579 31.1419 96.1135 31.9369 95.843 33.073L94.9476 36.8928Z" fill="#F8F8F8"/>
<path d="M113.641 35.7479C111.367 38.1573 109.667 39.362 108.539 39.362C107.918 39.362 107.393 39.0419 106.965 38.4C106.537 37.758 106.324 36.9526 106.324 35.9835C106.324 33.8977 107.024 31.0082 108.424 27.3168L112.126 26.5377H112.301L110.843 31.1348C110.241 33.0342 109.939 34.3902 109.939 35.2044C109.939 35.528 110.009 35.7901 110.151 35.9906C110.292 36.1911 110.468 36.2913 110.683 36.2913C111.062 36.2913 111.444 36.1524 111.828 35.8727C112.212 35.5931 112.818 34.9899 113.643 34.0578V35.7479H113.641ZM113.35 20.7938C113.35 23.1434 112.489 24.32 110.77 24.32C109.934 24.32 109.22 24.0649 108.627 23.5567C109.191 22.6949 109.627 21.7259 109.939 20.6478C110.707 21.1279 111.325 21.3671 111.791 21.3671C112.315 21.3671 112.835 21.1772 113.35 20.7938Z" fill="#F8F8F8"/>
<path d="M126.733 35.748C126.237 36.1894 125.755 36.4989 125.289 36.6801C124.823 36.8612 124.453 36.9509 124.181 36.9509C123.481 36.9509 122.786 36.6766 122.097 36.1279C120.697 38.2629 119.093 39.3304 117.286 39.3304C116.158 39.3304 115.246 38.9048 114.546 38.0519C113.846 37.1989 113.497 36.0681 113.497 34.6594C113.497 32.4258 114.284 30.5089 115.858 28.9085C117.433 27.3081 119.313 26.5061 121.5 26.5061C122.325 26.5061 122.931 26.5976 123.315 26.7769C123.699 26.9581 123.935 27.1709 124.022 27.4153C124.109 27.6598 124.153 27.9693 124.153 28.3404C124.153 30.1712 123.657 32.4188 122.666 35.0832C123.161 35.544 123.681 35.7744 124.226 35.7744C124.877 35.7744 125.713 35.201 126.734 34.0561V35.748H126.733ZM121.922 27.5367C121.775 27.4787 121.568 27.4488 121.295 27.4488C120.032 27.4488 119.044 28.1153 118.328 29.4466C117.614 30.7779 117.256 32.3361 117.256 34.1177C117.256 35.1078 117.412 35.8764 117.722 36.4233C118.033 36.972 118.466 37.2464 119.019 37.2464C119.709 37.2464 120.458 36.6045 121.264 35.3224C120.349 34.1669 119.894 32.9235 119.894 31.5905C119.895 30.0252 120.571 28.6728 121.922 27.5367Z" fill="#F8F8F8"/>
</svg>
