<svg width="231" height="606" viewBox="0 0 231 606" fill="none" xmlns="http://www.w3.org/2000/svg">
<g filter="url(#filter0_d)">
<path d="M173.702 519.051C184.911 529.898 190.516 542.981 190.516 558.315C190.516 569.294 187.072 578.301 180.186 585.327C173.299 592.353 164.457 595.862 153.659 595.862C142.91 595.862 132.679 593.323 122.974 588.244C113.277 583.166 105.519 576.518 99.7093 568.308C93.8993 560.099 90.9902 552.029 90.9902 544.115C90.9902 537.483 92.9789 532.068 96.9646 527.885C100.942 523.694 106.119 521.607 112.48 521.607C120.763 521.607 127.937 524.138 134.002 529.192C140.067 534.245 143.099 540.162 143.099 546.934C143.099 550.5 142.187 553.434 140.354 555.719C138.522 558.011 136.172 559.154 133.287 559.154C130.814 559.154 128.529 558.167 126.425 556.203C129.129 554.741 130.477 552.727 130.477 550.163C130.477 546.506 128.192 543.104 123.615 539.973C119.037 536.842 114.025 535.273 108.584 535.273C104.788 535.273 101.764 536.152 99.5203 537.919C97.2768 539.677 96.1592 542.028 96.1592 544.953C96.1592 549.21 98.8136 553.754 104.122 558.578C109.431 563.41 116.252 567.429 124.576 570.658C132.909 573.888 140.823 575.499 148.326 575.499C157.891 575.499 165.739 572.787 171.87 567.363C178 561.939 181.065 555.045 181.065 546.671C181.065 541.362 179.833 536.579 177.375 532.323C174.918 528.066 171.064 523.653 165.829 519.075L173.702 519.075L173.702 519.051Z" fill="white"/>
<path d="M173.636 445.814C180.588 453.136 185.125 458.379 187.228 461.535C189.332 464.691 190.384 467.715 190.384 470.599C190.384 477.831 183.999 481.241 171.237 480.83C177.778 485.408 182.61 489.631 185.716 493.494C188.831 497.364 190.384 501.35 190.384 505.475C190.384 509.502 188.494 512.921 184.722 515.739C180.95 518.55 176.315 519.963 170.826 519.963C163.964 519.963 157.423 518.073 151.193 514.301C144.973 510.529 139.935 505.689 136.089 499.78C132.243 493.88 130.32 488.662 130.32 484.134C130.32 478.414 132.95 474.412 138.218 472.119L130.46 458.092L130.46 454.238L150.569 460.294C160.685 463.409 167.613 464.97 171.368 464.97C175.304 464.97 177.268 463.573 177.268 460.787C177.268 459.004 176.315 457.04 174.417 454.887C172.519 452.734 169.626 449.718 165.731 445.831L173.636 445.831L173.636 445.814ZM177.408 496.058C177.408 491.48 173.505 487.166 165.706 483.123C157.907 479.072 150.709 477.05 144.118 477.05C141.554 477.05 139.557 477.625 138.111 478.768C136.673 479.91 135.949 481.447 135.949 483.37C135.949 487.947 139.836 492.286 147.619 496.378C155.401 500.471 162.559 502.525 169.1 502.525C171.574 502.525 173.57 501.917 175.107 500.709C176.644 499.476 177.408 497.931 177.408 496.058Z" fill="white"/>
<path d="M173.636 394.544C184.895 406.032 190.524 414.883 190.524 421.104C190.524 423.898 189.349 426.248 186.99 428.171C184.632 430.094 181.714 431.055 178.238 431.055C171.787 431.055 163.134 427.604 152.295 420.693C154.037 424.079 155.245 427.785 155.935 431.811C161.425 434.786 167.333 439.454 173.644 445.815L173.644 447.392L167.465 447.392C163.758 443.826 159.781 440.596 155.524 437.712C153.782 441.648 151.202 443.612 147.767 443.612C144.241 443.612 140.478 442.412 136.475 440.005C132.473 437.605 130.468 434.293 130.468 430.086C130.468 426.519 132.301 424.736 135.958 424.736C138.842 424.736 142.959 425.763 148.317 427.826C147.495 420.233 141.686 413.593 130.879 407.922L130.608 401.677L148.178 408.062C155.59 410.716 160.636 412.434 163.315 413.206C165.994 413.987 168.36 414.373 170.415 414.373C172.338 414.373 173.875 413.93 175.017 413.034C176.159 412.138 176.734 410.938 176.734 409.426C176.734 407.783 176.175 406.197 175.05 404.693C173.932 403.181 170.826 399.795 165.747 394.536L173.636 394.536L173.636 394.544Z" fill="white"/>
<path d="M173.636 321.232C180.177 327.823 184.607 332.844 186.916 336.295C189.225 339.755 190.384 342.804 190.384 345.458C190.384 348.704 188.806 351.285 185.65 353.183C182.495 355.081 177.868 356.059 171.787 356.1C177.876 359.856 182.495 363.94 185.65 368.353C188.806 372.766 190.384 376.76 190.384 380.334C190.384 384.221 188.543 387.657 184.862 390.631C181.18 393.606 176.866 395.094 171.927 395.094C161.72 395.094 152.262 391.379 143.543 383.942C134.824 376.505 130.468 368.509 130.468 359.954C130.468 357.58 130.813 355.714 131.495 354.358C132.177 353.01 133.344 351.531 134.996 349.929L93.9484 340.117C92.0748 332.104 91.1379 326.697 91.1379 323.903C91.1379 322.991 91.5077 322.531 92.2391 322.531C92.7404 322.531 97.4821 323.673 106.448 325.958C142.326 335.104 163.972 339.673 171.376 339.673C173.118 339.673 174.507 339.311 175.559 338.58C176.611 337.849 177.137 336.887 177.137 335.704C177.137 332.778 173.34 327.963 165.739 321.249L173.636 321.249L173.636 321.232ZM177.268 370.859C177.268 366.373 173.472 362.19 165.87 358.303C158.277 354.416 151.161 352.468 144.521 352.468C141.817 352.468 139.672 353.076 138.07 354.284C136.467 355.5 135.67 357.086 135.67 359.05C135.67 363.307 139.639 367.424 147.578 371.402C155.516 375.379 162.69 377.376 169.092 377.376C171.606 377.376 173.603 376.793 175.066 375.626C176.537 374.459 177.268 372.873 177.268 370.859Z" fill="white"/>
<path d="M173.636 247.996C180.588 255.318 185.125 260.561 187.228 263.717C189.332 266.872 190.384 269.897 190.384 272.781C190.384 280.013 183.999 283.423 171.237 283.012C177.778 287.589 182.61 291.813 185.716 295.676C188.831 299.546 190.384 303.532 190.384 307.657C190.384 311.684 188.494 315.103 184.722 317.921C180.95 320.732 176.315 322.145 170.826 322.145C163.964 322.145 157.423 320.255 151.193 316.483C144.973 312.711 139.935 307.871 136.089 301.962C132.243 296.062 130.32 290.844 130.32 286.316C130.32 280.596 132.95 276.594 138.218 274.301L130.46 260.274L130.46 256.419L150.569 262.476C160.685 265.59 167.613 267.152 171.368 267.152C175.304 267.152 177.268 265.755 177.268 262.969C177.268 261.186 176.315 259.222 174.417 257.069C172.519 254.916 169.626 251.9 165.731 248.013L173.636 248.013L173.636 247.996ZM177.408 298.24C177.408 293.662 173.505 289.348 165.706 285.305C157.907 281.254 150.709 279.232 144.118 279.232C141.554 279.232 139.557 279.807 138.111 280.949C136.673 282.092 135.949 283.628 135.949 285.551C135.949 290.129 139.836 294.468 147.619 298.56C155.401 302.653 162.559 304.707 169.1 304.707C171.574 304.707 173.57 304.099 175.107 302.891C176.644 301.658 177.408 300.113 177.408 298.24Z" fill="white"/>
<path d="M142.269 215.231C138.283 211.936 135.341 208.83 133.443 205.904C131.545 202.979 130.592 199.733 130.592 196.166C130.592 191.548 132.367 187.784 135.908 184.883C139.459 181.982 144.11 180.528 149.879 180.528C159.995 180.528 169.273 184.02 177.712 190.997C186.152 197.974 190.376 205.567 190.376 213.752C190.376 216.045 190.121 217.853 189.62 219.176C189.119 220.507 187.952 222.241 186.119 224.394C200.623 227.69 212.252 229.81 220.987 230.771L224.077 248.201C202.661 244.955 180.975 240.813 159.009 235.776C166.922 241.816 171.796 245.892 173.628 247.996L173.628 249.573L167.448 249.573C158.072 240.879 146.674 233.721 133.271 228.092L130.452 212.577L142.269 215.231ZM178.986 223.17C182.922 220.787 184.895 218.157 184.895 215.273C184.895 210.646 181.386 206.562 174.359 203.012C167.333 199.462 160.488 197.687 153.799 197.687C150.273 197.687 147.43 198.41 145.252 199.848C143.083 201.286 141.99 203.151 141.99 205.436C141.99 207.219 142.787 209.093 144.389 211.065C145.992 213.029 147.857 214.516 149.986 215.527C152.114 216.53 155.828 217.68 161.137 218.954L178.986 223.17Z" fill="white"/>
<path d="M142.269 141.716C138.283 138.421 135.341 135.314 133.443 132.389C131.545 129.463 130.592 126.217 130.592 122.651C130.592 118.032 132.367 114.268 135.908 111.368C139.459 108.467 144.11 107.012 149.879 107.012C159.995 107.012 169.273 110.505 177.712 117.482C186.152 124.458 190.376 132.052 190.376 140.237C190.376 142.529 190.121 144.337 189.62 145.66C189.119 146.992 187.952 148.726 186.119 150.879C200.623 154.174 212.252 156.294 220.987 157.256L224.077 174.686C202.661 171.439 180.975 167.298 159.009 162.26C166.922 168.3 171.796 172.376 173.628 174.48L173.628 176.058L167.448 176.058C158.072 167.363 146.674 160.206 133.271 154.577L130.452 139.061L142.269 141.716ZM178.986 149.654C182.922 147.271 184.895 144.641 184.895 141.757C184.895 137.13 181.386 133.046 174.359 129.496C167.333 125.946 160.488 124.171 153.799 124.171C150.273 124.171 147.43 124.894 145.252 126.332C143.083 127.77 141.99 129.636 141.99 131.92C141.99 133.703 142.787 135.577 144.389 137.549C145.992 139.513 147.857 141.001 149.986 142.012C152.114 143.014 155.828 144.165 161.137 145.438L178.986 149.654Z" fill="white"/>
<path d="M173.636 61.6413C184.895 72.349 190.524 80.3613 190.524 85.6618C190.524 88.5873 189.028 91.0609 186.029 93.0743C183.029 95.0876 179.266 96.0984 174.738 96.0984C164.991 96.0984 151.489 92.803 134.24 86.2124L130.6 68.7743L130.6 67.9525L152.081 74.8143C160.956 77.6495 167.292 79.0711 171.097 79.0711C172.609 79.0711 173.834 78.7425 174.77 78.0768C175.707 77.4112 176.176 76.5812 176.176 75.5704C176.176 73.7871 175.526 71.9874 174.22 70.1795C172.913 68.3716 170.095 65.5201 165.739 61.6331L173.636 61.6331L173.636 61.6413ZM103.761 63.0136C114.74 63.0136 120.237 67.065 120.237 75.1595C120.237 79.0958 119.046 82.4569 116.671 85.2509C112.644 82.5966 108.116 80.5421 103.079 79.0711C105.322 75.4553 106.44 72.5545 106.44 70.3521C106.44 67.8868 105.544 65.4379 103.761 63.0136Z" fill="white"/>
<path d="M173.636 0.00794031C175.699 2.34179 177.145 4.60986 177.992 6.804C178.838 8.99814 179.257 10.7403 179.257 12.0223C179.257 15.3176 177.975 18.5883 175.411 21.8343C185.388 28.425 190.376 35.9771 190.376 44.4825C190.376 49.7912 188.387 54.0891 184.402 57.3844C180.416 60.6797 175.132 62.3232 168.549 62.3232C158.113 62.3232 149.156 58.6171 141.677 51.2046C134.199 43.7922 130.452 34.9334 130.452 24.6448C130.452 20.7578 130.879 17.9062 131.717 16.0983C132.564 14.2904 133.558 13.181 134.7 12.7701C135.843 12.3592 137.289 12.1538 139.023 12.1538C147.578 12.1538 158.08 14.4876 170.53 19.1553C172.683 16.8215 173.76 14.3726 173.76 11.8086C173.76 8.74342 171.081 4.80711 165.731 -0.00028383L173.636 -0.000284175L173.636 0.00794031ZM135.268 22.6561C134.996 23.3382 134.857 24.3243 134.857 25.6063C134.857 31.5559 137.971 36.2072 144.192 39.5765C150.413 42.9375 157.694 44.6222 166.018 44.6222C170.645 44.6222 174.236 43.8908 176.792 42.4281C179.356 40.9653 180.638 38.9273 180.638 36.3223C180.638 33.0762 177.638 29.5508 171.648 25.7542C166.249 30.0521 160.439 32.2052 154.209 32.2052C146.887 32.1969 140.576 29.0167 135.268 22.6561Z" fill="white"/>
<path d="M12.2722 216.037C8.68926 216.037 5.44324 216.037 2 216.037C2 211.377 2 207.063 2 202.248C5.38572 202.248 8.73035 202.248 11.8531 202.248C13.5788 195.969 14.5732 189.962 16.8495 184.489C26.5218 161.183 43.6887 146.761 68.7118 142.167C72.04 141.559 75.4504 141.263 78.8361 141.042C83.849 140.705 86.7005 142.956 87.021 148.035C87.358 153.335 87.095 158.677 87.095 164.396C82.8053 164.396 78.3842 164.396 73.4042 164.396C73.4042 161.676 73.4042 158.891 73.4042 156.212C54.528 152.645 29.02 178.432 26.0205 203.464C22.5937 231.971 45.5213 260.898 73.2891 262.582C73.2891 235.546 73.2891 208.542 73.2891 181.3C78.039 181.3 82.3615 181.3 87.3086 181.3C87.3086 184.727 87.3086 188.097 87.3086 191.466C87.284 217.023 87.2758 242.58 87.2183 268.138C87.2018 275.451 84.7283 277.711 77.4802 277.317C44.5927 275.55 18.5177 252.072 13.0529 219.316C12.8885 218.395 12.6174 217.483 12.2722 216.037Z" fill="white"/>
<path d="M111.88 283.727C107.368 283.727 103.177 283.727 98.6902 283.727C98.6902 233.977 98.6902 184.382 98.6902 134.443C102.963 134.443 107.253 134.443 111.88 134.443C111.88 184.037 111.88 233.656 111.88 283.727Z" fill="white"/>
</g>
<defs>
<filter id="filter0_d" x="0" y="-0.000244141" width="230.077" height="605.863" filterUnits="userSpaceOnUse" color-interpolation-filters="sRGB">
<feFlood flood-opacity="0" result="BackgroundImageFix"/>
<feColorMatrix in="SourceAlpha" type="matrix" values="0 0 0 0 0 0 0 0 0 0 0 0 0 0 0 0 0 0 127 0"/>
<feOffset dx="2" dy="6"/>
<feGaussianBlur stdDeviation="2"/>
<feColorMatrix type="matrix" values="0 0 0 0 0 0 0 0 0 0 0 0 0 0 0 0 0 0 0.47 0"/>
<feBlend mode="normal" in2="BackgroundImageFix" result="effect1_dropShadow"/>
<feBlend mode="normal" in="SourceGraphic" in2="effect1_dropShadow" result="shape"/>
</filter>
</defs>
</svg>
