<svg width="290" height="108" viewBox="0 0 290 108" fill="none" xmlns="http://www.w3.org/2000/svg">
<g filter="url(#filter0_d)">
<path d="M38.4172 77.1957C33.2743 82.2352 27.0717 84.7549 19.8015 84.7549C14.5963 84.7549 10.3261 83.2069 6.99491 80.1108C3.66371 77.0147 2.00006 73.0392 2.00006 68.1845C2.00006 63.3519 3.20397 58.7521 5.61178 54.3888C8.01959 50.0291 11.1716 46.5414 15.0638 43.9293C18.956 41.3171 22.782 40.0092 26.534 40.0092C29.6782 40.0092 32.2458 40.9033 34.2289 42.6952C36.2159 44.4834 37.2055 46.8111 37.2055 49.6707C37.2055 53.3949 36.0055 56.6203 33.6094 59.3469C31.2133 62.0736 28.4081 63.4369 25.1977 63.4369C23.5067 63.4369 22.1158 63.0268 21.0327 62.2029C19.9457 61.379 19.4041 60.3223 19.4041 59.0255C19.4041 57.9134 19.8716 56.8863 20.8028 55.9405C21.4963 57.156 22.4509 57.762 23.6665 57.762C25.4002 57.762 27.0133 56.7348 28.4977 54.6769C29.9821 52.619 30.7263 50.3653 30.7263 47.9194C30.7263 46.2125 30.3094 44.8529 29.4717 43.8443C28.6379 42.8356 27.5236 42.3332 26.1366 42.3332C24.1184 42.3332 21.9639 43.5265 19.6768 45.9133C17.3859 48.3 15.4807 51.3665 13.9495 55.1092C12.4183 58.8556 11.6547 62.4135 11.6547 65.7867C11.6547 70.0872 12.9404 73.6156 15.5119 76.3718C18.0833 79.128 21.3522 80.5061 25.3223 80.5061C27.8392 80.5061 30.1068 79.9519 32.125 78.8472C34.1432 77.7425 36.2354 76.0097 38.4055 73.6562V77.1957H38.4172Z" fill="white"/>
<path d="M73.1395 77.1661C69.668 80.2918 67.1823 82.3312 65.6861 83.277C64.19 84.2229 62.7562 84.6958 61.3887 84.6958C57.9601 84.6958 56.3432 81.825 56.538 76.0873C54.3679 79.0282 52.3653 81.2006 50.5341 82.5972C48.699 83.9975 46.8094 84.6958 44.8535 84.6958C42.9444 84.6958 41.3236 83.846 39.9872 82.1502C38.6548 80.4543 37.9846 78.3706 37.9846 75.9025C37.9846 72.8175 38.8807 69.8766 40.6691 67.0761C42.4574 64.2792 44.7522 62.0144 47.5535 60.2853C50.351 58.5563 52.825 57.6917 54.9718 57.6917C57.6835 57.6917 59.5809 58.874 60.6679 61.2423L67.3186 57.7545H69.1459L66.2745 66.7953C64.7978 71.3434 64.0576 74.458 64.0576 76.1464C64.0576 77.9161 64.7199 78.7991 66.0407 78.7991C66.8862 78.7991 67.8173 78.3706 68.8381 77.5171C69.8589 76.6636 71.2888 75.3631 73.1317 73.6119V77.1661H73.1395ZM49.3185 78.8619C51.4886 78.8619 53.5341 77.107 55.451 73.6008C57.3718 70.0946 58.3302 66.8581 58.3302 63.895C58.3302 62.7423 58.0575 61.8445 57.5159 61.1942C56.9744 60.5477 56.2458 60.2225 55.3341 60.2225C53.164 60.2225 51.1068 61.9701 49.1665 65.4689C47.2263 68.9677 46.2522 72.1858 46.2522 75.1267C46.2522 76.2388 46.5405 77.1366 47.1133 77.8275C47.6977 78.5184 48.4302 78.8619 49.3185 78.8619Z" fill="white"/>
<path d="M97.4474 77.1661C92.0006 82.2277 87.8045 84.7586 84.8551 84.7586C83.5304 84.7586 82.4161 84.2302 81.5044 83.1699C80.5927 82.1095 80.1369 80.7979 80.1369 79.2351C80.1369 76.3348 81.7732 72.4444 85.0499 67.5711C83.4447 68.3544 81.6875 68.8975 79.7784 69.2079C78.368 71.6759 76.155 74.3323 73.1394 77.1698H72.3914V74.3914C74.0823 72.7252 75.6135 70.937 76.981 69.0231C75.1148 68.2399 74.1836 67.0798 74.1836 65.5354C74.1836 63.9504 74.7524 62.2583 75.894 60.459C77.0317 58.6597 78.6018 57.7582 80.5966 57.7582C82.2875 57.7582 83.133 58.5821 83.133 60.2262C83.133 61.523 82.646 63.374 81.6681 65.7829C85.2681 65.4135 88.4162 62.8014 91.1045 57.9429L94.0656 57.821L91.0383 65.7201C89.7798 69.0527 88.9655 71.3212 88.5993 72.5256C88.2291 73.7301 88.046 74.7941 88.046 75.7178C88.046 76.5823 88.2564 77.2732 88.6811 77.7868C89.1058 78.3004 89.6746 78.559 90.3915 78.559C91.1707 78.559 91.9227 78.3077 92.6357 77.8016C93.3526 77.2991 94.9578 75.9025 97.4513 73.6193V77.1661H97.4474Z" fill="white"/>
<path d="M132.205 77.1661C129.08 80.1071 126.7 82.0985 125.064 83.1367C123.423 84.1749 121.978 84.6958 120.719 84.6958C119.18 84.6958 117.957 83.9864 117.057 82.5677C116.157 81.149 115.693 79.0689 115.674 76.3349C113.893 79.0726 111.957 81.149 109.865 82.5677C107.773 83.9864 105.879 84.6958 104.184 84.6958C102.341 84.6958 100.713 83.8682 99.3023 82.213C97.8919 80.5578 97.1867 78.6181 97.1867 76.3977C97.1867 71.8089 98.9478 67.5564 102.474 63.6364C106 59.7164 109.791 57.7582 113.847 57.7582C114.973 57.7582 115.857 57.9134 116.5 58.2201C117.139 58.5267 117.84 59.0514 118.6 59.794L123.252 41.3393C127.051 40.4969 129.614 40.0757 130.939 40.0757C131.371 40.0757 131.59 40.242 131.59 40.5708C131.59 40.7962 131.048 42.928 129.965 46.9588C125.629 63.0896 123.462 72.8213 123.462 76.1501C123.462 76.9334 123.634 77.5578 123.98 78.0307C124.327 78.5036 124.783 78.7401 125.344 78.7401C126.731 78.7401 129.014 77.0331 132.197 73.6156V77.1661H132.205ZM108.676 78.7992C110.804 78.7992 112.787 77.0923 114.63 73.6747C116.473 70.2609 117.396 67.0613 117.396 64.0761C117.396 62.8605 117.108 61.8962 116.535 61.1758C115.958 60.4553 115.206 60.0969 114.275 60.0969C112.257 60.0969 110.305 61.8815 108.419 65.4505C106.534 69.0195 105.587 72.2449 105.587 75.123C105.587 76.2536 105.863 77.1514 106.417 77.809C106.97 78.4703 107.722 78.7992 108.676 78.7992Z" fill="white"/>
<path d="M166.927 77.1661C163.456 80.2918 160.97 82.3312 159.474 83.2771C157.978 84.2229 156.544 84.6958 155.176 84.6958C151.748 84.6958 150.131 81.8251 150.326 76.0873C148.156 79.0282 146.153 81.2007 144.322 82.5972C142.487 83.9975 140.597 84.6958 138.641 84.6958C136.732 84.6958 135.111 83.846 133.775 82.1502C132.443 80.4544 131.772 78.3706 131.772 75.9026C131.772 72.8176 132.669 69.8766 134.457 67.0761C136.245 64.2793 138.54 62.0144 141.341 60.2854C144.139 58.5563 146.613 57.6917 148.76 57.6917C151.471 57.6917 153.369 58.874 154.456 61.2423L161.106 57.7545H162.934L160.062 66.7953C158.586 71.3434 157.845 74.458 157.845 76.1464C157.845 77.9161 158.508 78.7992 159.828 78.7992C160.674 78.7992 161.605 78.3706 162.626 77.5171C163.647 76.6637 165.077 75.3632 166.919 73.6119V77.1661H166.927ZM143.106 78.862C145.276 78.862 147.322 77.107 149.239 73.6008C151.16 70.0946 152.118 66.8581 152.118 63.895C152.118 62.7423 151.845 61.8445 151.304 61.1942C150.762 60.5477 150.034 60.2226 149.122 60.2226C146.952 60.2226 144.895 61.9701 142.954 65.4689C141.014 68.9677 140.04 72.1858 140.04 75.1267C140.04 76.2388 140.328 77.1366 140.901 77.8275C141.485 78.5184 142.218 78.862 143.106 78.862Z" fill="white"/>
<path d="M182.461 63.0637C184.024 61.2718 185.496 59.9491 186.884 59.0956C188.271 58.2422 189.81 57.8136 191.5 57.8136C193.69 57.8136 195.474 58.6116 196.85 60.204C198.225 61.8001 198.915 63.8913 198.915 66.4849C198.915 71.033 197.259 75.2042 193.951 78.9986C190.643 82.793 187.043 84.692 183.163 84.692C182.076 84.692 181.219 84.5775 180.591 84.3521C179.96 84.1267 179.138 83.6021 178.117 82.7782C176.555 89.2992 175.55 94.5271 175.094 98.4545L166.83 99.8437C168.369 90.2155 170.333 80.4654 172.721 70.5896C169.857 74.1475 167.925 76.3385 166.927 77.1624H166.179V74.384C170.302 70.1684 173.695 65.044 176.364 59.018L183.72 57.7508L182.461 63.0637ZM178.698 79.5713C179.828 81.341 181.074 82.2277 182.442 82.2277C184.635 82.2277 186.572 80.6501 188.255 77.4912C189.938 74.3323 190.78 71.2547 190.78 68.2472C190.78 66.6622 190.437 65.3839 189.755 64.4048C189.073 63.4294 188.189 62.938 187.106 62.938C186.26 62.938 185.372 63.2964 184.437 64.0169C183.506 64.7373 182.8 65.576 182.321 66.5329C181.846 67.4898 181.3 69.1598 180.696 71.5465L178.698 79.5713Z" fill="white"/>
<path d="M217.316 63.0638C218.878 61.2719 220.351 59.9492 221.738 59.0957C223.125 58.2423 224.664 57.8137 226.355 57.8137C228.545 57.8137 230.329 58.6117 231.704 60.2041C233.08 61.8002 233.769 63.8914 233.769 66.485C233.769 71.0331 232.114 75.2043 228.806 78.9987C225.498 82.7931 221.898 84.6922 218.017 84.6922C216.93 84.6922 216.073 84.5776 215.446 84.3522C214.815 84.1269 213.993 83.6022 212.972 82.7783C211.409 89.2994 210.404 94.5273 209.948 98.4546L201.685 99.8438C203.224 90.2156 205.187 80.4655 207.576 70.5897C204.712 74.1477 202.779 76.3386 201.782 77.1625H201.034V74.3841C205.156 70.1686 208.55 65.0441 211.219 59.0182L218.574 57.7509L217.316 63.0638ZM213.552 79.5714C214.682 81.3411 215.929 82.2278 217.297 82.2278C219.49 82.2278 221.426 80.6502 223.11 77.4913C224.793 74.3324 225.634 71.2548 225.634 68.2473C225.634 66.6623 225.291 65.384 224.61 64.4049C223.928 63.4295 223.043 62.9382 221.96 62.9382C221.115 62.9382 220.226 63.2965 219.291 64.017C218.36 64.7374 217.655 65.5761 217.176 66.533C216.7 67.4899 216.155 69.1599 215.551 71.5467L213.552 79.5714Z" fill="white"/>
<path d="M255.28 77.1662C250.204 82.2279 246.405 84.7587 243.892 84.7587C242.505 84.7587 241.332 84.0863 240.377 82.7377C239.423 81.3892 238.944 79.697 238.944 77.6613C238.944 73.2795 240.506 67.2092 243.631 59.4541L251.898 57.8174H252.288L249.035 67.4752C247.691 71.4654 247.017 74.314 247.017 76.0246C247.017 76.7044 247.172 77.2549 247.488 77.6761C247.804 78.0973 248.197 78.3078 248.676 78.3078C249.522 78.3078 250.375 78.016 251.232 77.4285C252.089 76.8411 253.441 75.5738 255.284 73.6157V77.1662H255.28ZM254.63 45.7508C254.63 50.6868 252.709 53.1585 248.871 53.1585C247.005 53.1585 245.411 52.6228 244.087 51.555C245.345 49.7447 246.319 47.7089 247.017 45.4441C248.731 46.4527 250.106 46.9552 251.15 46.9552C252.319 46.9552 253.48 46.5525 254.63 45.7508Z" fill="white"/>
<path d="M284.501 77.1662C283.395 78.0936 282.319 78.7438 281.279 79.1244C280.239 79.5049 279.413 79.6934 278.805 79.6934C277.243 79.6934 275.692 79.117 274.153 77.9643C271.028 82.4496 267.448 84.6922 263.415 84.6922C260.898 84.6922 258.861 83.7981 257.298 82.0062C255.736 80.2143 254.957 77.8387 254.957 74.8793C254.957 70.1871 256.714 66.1599 260.228 62.7978C263.743 59.4357 267.943 57.7509 272.821 57.7509C274.664 57.7509 276.015 57.9431 276.873 58.3199C277.73 58.7005 278.256 59.1475 278.451 59.6611C278.645 60.1746 278.743 60.8249 278.743 61.6044C278.743 65.4506 277.636 70.1723 275.423 75.7697C276.53 76.7377 277.691 77.2217 278.906 77.2217C280.36 77.2217 282.226 76.0172 284.505 73.612V77.1662H284.501ZM273.763 59.916C273.44 59.7941 272.973 59.7313 272.365 59.7313C269.544 59.7313 267.339 61.1315 265.741 63.9284C264.148 66.7252 263.349 69.9987 263.349 73.7413C263.349 75.8214 263.696 77.4359 264.389 78.585C265.083 79.7377 266.049 80.3141 267.284 80.3141C268.823 80.3141 270.495 78.9655 272.295 76.2721C270.257 73.8448 269.236 71.2327 269.236 68.4321C269.24 65.1402 270.748 62.3027 273.763 59.916Z" fill="white"/>
<path d="M182.08 4.61827C182.08 3.00741 182.08 1.54804 182.08 -1.52588e-05C184.289 -1.52588e-05 186.334 -1.52588e-05 188.617 -1.52588e-05C188.617 1.52217 188.617 3.02589 188.617 4.42985C191.594 5.20572 194.442 5.65277 197.037 6.67618C208.086 11.0248 214.924 18.7428 217.102 29.993C217.39 31.4893 217.53 33.0226 217.636 34.5448C217.795 36.7985 216.728 38.0805 214.32 38.2246C211.807 38.3761 209.275 38.2579 206.563 38.2579C206.563 36.3293 206.563 34.3416 206.563 32.1026C207.852 32.1026 209.173 32.1026 210.443 32.1026C212.134 23.6161 199.908 12.1479 188.041 10.7994C174.525 9.25873 160.81 19.5667 160.012 32.0509C172.83 32.0509 185.633 32.0509 198.548 32.0509C198.548 34.1864 198.548 36.1298 198.548 38.3539C196.924 38.3539 195.326 38.3539 193.729 38.3539C181.612 38.3429 169.495 38.3392 157.378 38.3133C153.91 38.3059 152.839 37.1938 153.026 33.9352C153.864 19.1493 164.995 7.42619 180.525 4.96926C180.961 4.89537 181.394 4.77345 182.08 4.61827Z" fill="white"/>
<path d="M149.987 49.4009C149.987 47.3725 149.987 45.4883 149.987 43.471C173.574 43.471 197.087 43.471 220.764 43.471C220.764 45.3922 220.764 47.3208 220.764 49.4009C197.251 49.4009 173.726 49.4009 149.987 49.4009Z" fill="white"/>
</g>
<defs>
<filter id="filter0_d" x="0.449219" y="-1.52588e-05" width="288.708" height="107.598" filterUnits="userSpaceOnUse" color-interpolation-filters="sRGB">
<feFlood flood-opacity="0" result="BackgroundImageFix"/>
<feColorMatrix in="SourceAlpha" type="matrix" values="0 0 0 0 0 0 0 0 0 0 0 0 0 0 0 0 0 0 127 0"/>
<feOffset dx="1.55078" dy="4.65234"/>
<feGaussianBlur stdDeviation="1.55078"/>
<feColorMatrix type="matrix" values="0 0 0 0 0 0 0 0 0 0 0 0 0 0 0 0 0 0 0.47 0"/>
<feBlend mode="normal" in2="BackgroundImageFix" result="effect1_dropShadow"/>
<feBlend mode="normal" in="SourceGraphic" in2="effect1_dropShadow" result="shape"/>
</filter>
</defs>
</svg>
